<?xml version="1.0" standalone="no"?>
<!DOCTYPE svg PUBLIC "-//W3C//DTD SVG 20010904//EN"
 "http://www.w3.org/TR/2001/REC-SVG-20010904/DTD/svg10.dtd">
<svg version="1.0" xmlns="http://www.w3.org/2000/svg"
 width="266.000000pt" height="266.000000pt" viewBox="0 0 266.000000 266.000000"
 preserveAspectRatio="xMidYMid meet">
<metadata>
Created by potrace 1.11, written by Peter Selinger 2001-2013
</metadata>
<g transform="translate(0.000000,266.000000) scale(0.100000,-0.100000)"
fill="#000000" stroke="none">
<path d="M1384 2650 c-247 -36 -387 -192 -403 -449 l-6 -104 -85 -17 c-154
-32 -272 -90 -356 -177 -63 -64 -87 -122 -92 -225 -2 -49 -6 -88 -8 -88 -2 0
-39 16 -83 35 -160 71 -228 71 -268 0 -31 -54 -74 -196 -76 -248 0 -25 22
-117 53 -223 l54 -181 62 -27 c59 -26 63 -29 74 -74 27 -107 54 -132 146 -132
26 0 44 -5 44 -11 0 -8 13 -9 41 -5 l41 7 -8 -33 c-8 -37 -8 -39 -5 -88 3 -60
13 -65 55 -25 21 19 41 35 45 35 5 0 11 -21 14 -46 7 -65 20 -74 49 -30 12 20
26 36 29 36 4 0 9 -18 13 -39 8 -51 19 -57 50 -26 49 49 54 33 32 -117 -12
-86 -12 -86 8 -72 28 19 38 18 32 -4 -8 -24 9 -111 30 -159 l17 -38 15 50 15
50 13 -50 c7 -27 18 -63 24 -80 l11 -29 25 32 c28 35 44 41 44 16 0 -17 62
-84 78 -84 5 0 15 13 22 29 6 16 19 36 29 45 15 14 18 12 35 -13 11 -16 48
-42 82 -59 l62 -31 56 30 c34 19 62 43 72 61 18 34 32 28 59 -27 9 -19 21 -35
26 -35 17 0 79 66 79 84 0 25 16 19 44 -16 l25 -32 11 29 c6 17 17 53 25 80
l13 50 12 -48 c12 -45 13 -47 27 -27 18 25 43 143 36 170 -6 24 9 26 31 5 8
-8 16 -15 18 -15 2 0 -1 52 -7 116 -6 63 -8 117 -4 120 4 2 19 -10 34 -27 32
-39 49 -28 50 31 0 22 2 40 5 40 3 0 18 -19 34 -41 33 -48 46 -42 53 25 3 25
9 46 14 46 4 0 24 -16 45 -35 20 -19 38 -35 39 -35 7 0 24 62 20 73 -2 7 -6
33 -9 60 l-6 47 40 -6 c24 -4 40 -3 40 4 0 5 27 12 60 14 73 5 102 29 120 96
7 26 14 54 16 64 3 9 33 28 68 44 l63 27 56 197 57 196 -24 97 c-29 115 -70
195 -106 209 -45 18 -145 -9 -296 -78 -8 -4 -13 21 -16 78 -9 174 -105 289
-306 367 -61 23 -220 61 -258 61 -2 0 -4 11 -4 24 0 36 39 76 116 121 l68 40
-73 3 c-96 4 -159 -17 -204 -67 -19 -21 -37 -44 -39 -52 -3 -8 -9 -11 -13 -7
-11 10 -9 128 3 159 16 40 61 88 106 112 l41 22 -33 3 c-54 5 -135 -17 -187
-51 -56 -37 -111 -112 -127 -173 -7 -24 -15 -41 -19 -38 -4 2 -12 35 -19 73
-25 148 35 284 160 362 48 30 44 32 -46 19z m633 -916 c-3 -3 -12 -4 -19 -1
-8 3 -5 6 6 6 11 1 17 -2 13 -5z m440 -311 c48 -126 -10 -248 -182 -378 -19
-14 -28 -32 -32 -62 -3 -24 -10 -43 -15 -43 -5 0 -7 83 -6 188 l3 187 40 0
c34 0 41 -4 49 -28 7 -19 6 -38 -2 -60 l-11 -32 29 33 c20 22 30 43 30 65 0
56 -31 84 -112 101 -16 4 -28 10 -28 15 0 7 118 58 170 74 26 8 48 -12 67 -60z
m-2097 26 c44 -17 78 -35 75 -39 -3 -5 -24 -14 -47 -20 -52 -15 -88 -50 -88
-89 0 -38 16 -74 40 -88 16 -11 17 -9 7 23 -14 45 3 84 37 84 57 0 56 3 56
-196 0 -116 -4 -184 -10 -184 -5 0 -10 16 -10 36 0 28 -7 42 -31 63 -160 135
-199 193 -199 299 0 48 6 74 22 103 27 48 42 49 148 8z m304 -88 c-2 -3 -12 3
-22 13 -16 17 -16 18 5 5 12 -7 20 -15 17 -18z m1286 -26 c0 -2 -10 -9 -22
-15 -22 -11 -22 -10 -4 4 21 17 26 19 26 11z m-1190 -31 c0 -2 -9 0 -20 6 -11
6 -20 13 -20 16 0 2 9 0 20 -6 11 -6 20 -13 20 -16z m90 -28 c0 -2 -8 -10 -17
-17 -16 -13 -17 -12 -4 4 13 16 21 21 21 13z m971 -13 c13 -16 12 -17 -3 -4
-17 13 -22 21 -14 21 2 0 10 -8 17 -17z m-921 -27 c0 -2 -8 -10 -17 -17 -16
-13 -17 -12 -4 4 13 16 21 21 21 13z m570 0 c0 -2 -8 -10 -17 -17 -16 -13 -17
-12 -4 4 13 16 21 21 21 13z m301 -13 c13 -16 12 -17 -3 -4 -17 13 -22 21 -14
21 2 0 10 -8 17 -17z m-490 -60 c13 -16 12 -17 -3 -4 -10 7 -18 15 -18 17 0 8
8 3 21 -13z m118 14 c-2 -1 -13 -9 -24 -17 -19 -14 -19 -14 -6 3 7 9 18 17 24
17 6 0 8 -1 6 -3z m161 -141 c0 -2 -8 -10 -17 -17 -16 -13 -17 -12 -4 4 13 16
21 21 21 13z m-429 -23 c13 -16 12 -17 -3 -4 -10 7 -18 15 -18 17 0 8 8 3 21
-13z m515 -88 c17 -43 17 -91 -1 -130 -11 -24 -14 -26 -14 -9 -1 11 -14 41
-31 67 -29 46 -48 62 -36 31 4 -9 -1 -28 -9 -41 -13 -20 -19 -22 -31 -12 -11
9 -14 8 -14 -4 0 -17 -59 -33 -85 -24 -8 4 -17 2 -20 -3 -4 -6 -45 -10 -92
-10 -77 0 -85 2 -90 20 -5 19 -7 19 -18 4 -9 -13 -21 -15 -58 -10 -49 7 -77
33 -77 69 0 26 -14 14 -52 -45 -36 -55 -45 -49 -34 27 10 63 30 70 145 50 172
-30 341 -19 433 26 47 24 45 24 62 -8 8 -16 15 -22 16 -15 0 7 -5 22 -10 33
-6 10 -8 19 -5 19 3 0 13 -16 21 -35z m-329 -250 c5 -14 7 -14 22 -1 13 11 25
13 55 6 21 -5 42 -13 45 -17 3 -5 22 -14 41 -19 24 -7 34 -15 32 -26 -2 -12 3
-15 18 -11 24 6 112 -56 105 -74 -2 -7 -1 -13 4 -13 12 0 31 49 34 88 1 17 5
32 9 32 15 0 38 -60 38 -99 0 -32 -5 -44 -25 -57 -23 -15 -27 -15 -67 10 -24
15 -58 38 -77 52 -48 34 -131 56 -215 57 -111 0 -147 -14 -275 -108 -40 -29
-45 -30 -65 -9 -19 19 -20 80 -2 113 13 23 13 23 19 -14 9 -54 47 -92 47 -46
0 11 21 38 46 60 47 41 64 49 64 31 0 -5 5 -10 11 -10 6 0 9 6 6 14 -9 24 42
50 106 55 10 0 20 -6 24 -14z m398 -355 c-3 -5 -12 -10 -18 -10 -7 0 -6 4 3
10 19 12 23 12 15 0z"/>
</g>
</svg>
